@startuml

title: 360评估数据库模型

class User<<用户>> {
    ··fields..
    #name-姓名
    #password-密码
}

class EvaluationRecord<<评估记录>> {
    ..fields..
    #year-年度
    #userId-评估人
    #assesseeId-被评估人
    #optionName-评估项目
    #score-分数
    #content-标题
}

class Evaluation<<评估项目>> {
    ..fields..
    #content-标题
}

EvaluationRecord "many" *-- "one" Evaluation
User "one" --* "many" EvaluationRecord
@enduml
